<svg xmlns="http://www.w3.org/2000/svg" viewBox="0 0 24 30" fill="#ff0022" x="0px" y="0px"><path fill-rule="evenodd" clip-rule="evenodd" d="M3.99999 2C3.60619 2 3.24907 2.23111 3.08775 2.59034C2.92643 2.94958 2.99096 3.37004 3.25258 3.66436L11 12.3802V21C11 21.5523 11.4477 22 12 22C12.5523 22 13 21.5523 13 21V12.3802L20.7474 3.66436C21.009 3.37004 21.0735 2.94958 20.9122 2.59034C20.7509 2.23111 20.3938 2 20 2H3.99999ZM11 4H6.22683L11 9.3698V4ZM13 9.3698V4H17.7731L13 9.3698Z" fill="red"/><text x="0" y="39" fill="#ff0022" font-size="5px" font-weight="bold" font-family="'Helvetica Neue', Helvetica, Arial-Unicode, Arial, Sans-serif">Created by Cetha Studio</text><text x="0" y="44" fill="#ff0022" font-size="5px" font-weight="bold" font-family="'Helvetica Neue', Helvetica, Arial-Unicode, Arial, Sans-serif">from the Noun Project</text></svg>